<?xml version="1.0" encoding="UTF-8"?>
<!DOCTYPE svg PUBLIC "-//W3C//DTD SVG 1.1//EN" "http://www.w3.org/Graphics/SVG/1.1/DTD/svg11.dtd">
<!-- Creator: CorelDRAW X7 -->
<svg xmlns="http://www.w3.org/2000/svg" xml:space="preserve" width="1.02362in" height="1.02362in" version="1.1" style="shape-rendering:geometricPrecision; text-rendering:geometricPrecision; image-rendering:optimizeQuality; fill-rule:evenodd; clip-rule:evenodd"
viewBox="0 0 10236 10236"
 xmlns:xlink="http://www.w3.org/1999/xlink">
 <defs>
  <style type="text/css">
   <![CDATA[
    .fil0 {fill:none}
    .fil1 {fill:black}
   ]]>
  </style>
 </defs>
 <g id="Layer_x0020_1">
  <metadata id="CorelCorpID_0Corel-Layer"/>
  <g id="_2722077623424">
   <rect class="fil0" transform="matrix(2.64845E-014 -1 1 2.64845E-014 -1.36424E-010 10236.2)" width="10236" height="10236"/>
   <path class="fil1" d="M3851 5191l-221 0 0 2522 221 0 0 -2522zm-1106 2522l0 -4523 -221 0 0 4523 221 0zm553 0l0 -5190 -221 0 0 5190 221 0zm4193 0l0 -4523 221 0 0 4523 -221 0zm-553 0l0 -5190 221 0 0 5190 -221 0zm-1157 -3189l-221 0 0 3189 221 0 0 -3189zm-1106 0l-221 0 0 3189 221 0 0 -3189zm553 -2001l-221 0 0 5190 221 0 0 -5190zm1378 2668l-221 0 0 2522 221 0 0 -2522z"/>
  </g>
 </g>
</svg>
